<?xml version="1.0" encoding="utf-8"?>
<!-- Generator: Adobe Illustrator 24.1.3, SVG Export Plug-In . SVG Version: 6.00 Build 0)  -->
<svg version="1.1" id="圖層_1" xmlns="http://www.w3.org/2000/svg" xmlns:xlink="http://www.w3.org/1999/xlink" x="0px" y="0px"
	 viewBox="0 0 16 16" style="enable-background:new 0 0 16 16;" xml:space="preserve">
<style type="text/css">
	.st0{fill-rule:evenodd;clip-rule:evenodd;}
</style>
<path class="st0" d="M10,14c0,0.4-0.2,0.7-0.5,0.7h-8C1.2,14.7,1,14.4,1,14V2c0-0.4,0.2-0.7,0.5-0.7h8C9.8,1.3,10,1.6,10,2v2.7
	c0,0.4,0.2,0.7,0.5,0.7S11,5,11,4.7V2c0-1.1-0.7-2-1.5-2h-8C0.7,0,0,0.9,0,2v12c0,1.1,0.7,2,1.5,2h8c0.8,0,1.5-0.9,1.5-2v-2.7
	c0-0.4-0.2-0.7-0.5-0.7S10,11,10,11.3V14z"/>
<path class="st0" d="M8.1,11.4c0.2,0.2,0.5,0.2,0.7,0s0.2-0.5,0-0.7L6.7,8.5h8.8C15.8,8.5,16,8.3,16,8c0-0.3-0.2-0.5-0.5-0.5H6.7
	l2.1-2.1C9,5.2,9,4.9,8.8,4.7s-0.5-0.2-0.7,0l-3,3l0,0C5,7.8,5,8.2,5.1,8.4L8.1,11.4z"/>
</svg>
