<?xml version="1.0" encoding="utf-8"?>
<!-- Generator: Adobe Illustrator 24.1.3, SVG Export Plug-In . SVG Version: 6.00 Build 0)  -->
<svg version="1.1" id="圖層_1" xmlns="http://www.w3.org/2000/svg" xmlns:xlink="http://www.w3.org/1999/xlink" x="0px" y="0px"
	 viewBox="0 0 16 16" style="enable-background:new 0 0 16 16;" xml:space="preserve">
<style type="text/css">
	.st0{fill-rule:evenodd;clip-rule:evenodd;}
</style>
<path class="st0" d="M1,3.6c0-1.8,1.5-3.3,3.3-3.3s3.3,1.5,3.3,3.3c0,1.7-1.3,3.1-2.9,3.3v4.6c0,0.2-0.2,0.4-0.4,0.4
	s-0.4-0.2-0.4-0.4V6.9C2.3,6.7,1,5.3,1,3.6L1,3.6z M3.1,10.7c0,0.2-0.1,0.4-0.3,0.5c-0.6,0.1-1.1,0.2-1.4,0.4
	c-0.1,0.1-0.2,0.1-0.3,0.2c0,0,0,0,0,0.1l0,0l0,0l0,0L1.2,12c0.1,0.1,0.4,0.2,0.7,0.3c0.6,0.2,1.5,0.3,2.5,0.3s1.9-0.1,2.5-0.3
	c0.3-0.1,0.5-0.2,0.7-0.3l0.1-0.1l0,0l0,0l0,0v-0.1c-0.1-0.1-0.2-0.2-0.3-0.2C7,11.4,6.6,11.3,6,11.2c-0.2,0-0.4-0.2-0.4-0.5
	c0-0.2,0.2-0.4,0.5-0.4l0,0c0.6,0.1,1.2,0.3,1.6,0.5s0.8,0.5,0.8,1c0,0.4-0.2,0.6-0.5,0.8c-0.2,0.2-0.6,0.3-0.9,0.5
	c-0.7,0.2-1.7,0.4-2.8,0.4s-2.1-0.1-2.8-0.4c-0.4-0.1-0.7-0.3-0.9-0.5s-0.5-0.5-0.5-0.8c0-0.5,0.4-0.8,0.8-1s1-0.4,1.6-0.5
	C2.9,10.3,3.1,10.5,3.1,10.7"/>
<path d="M6.2,5.4c0.3-0.1,0.6,0,0.8,0.2l2.2,4.1c0,0.2,0.3,0.3,0.5,0.2S10,9.6,9.9,9.4l-1-1.6H9c0.2-0.1,0.4-0.2,0.5-0.3
	c0.1,0,0.2,0,0.4,0c0.1,0,0.1,0,0.2,0.2L10.8,9c0.1,0.2,0.3,0.3,0.5,0.2s0.3-0.3,0.2-0.5l-0.5-1h0.1c0.2-0.1,0.4-0.2,0.5-0.2
	s0.3,0,0.5,0.1c0.1,0,0.2,0.1,0.2,0.1l0.5,0.9c0.1,0.2,0.3,0.3,0.5,0.2s0.3-0.3,0.2-0.5l-0.3-0.7l0.2-0.1c0.4-0.2,0.8-0.1,1,0.3
	c0,0,0,0,0,0.1l0.8,1.9c0.1,0.2,0.1,0.5,0.1,0.8L15,12.3c0,0.1-0.1,0.3-0.2,0.3l-4.2,2.2c-0.1,0.1-0.2,0.1-0.4,0L8.6,14
	c-0.2-0.1-0.3-0.2-0.4-0.4l-1.3-1.9c-0.1-0.2-0.1-0.4,0.1-0.5l0.6-0.5l0.3,0.6c0.1,0.2,0.3,0.3,0.5,0.2s0.3-0.3,0.2-0.5L6,6.2
	C5.9,5.9,6,5.6,6.2,5.4 M8.6,7.1l-1-1.8C7.3,4.7,6.5,4.4,5.9,4.8S5,5.9,5.3,6.5L7.2,10l-0.7,0.6c-0.4,0.4-0.5,1-0.2,1.5L7.6,14
	c0.2,0.2,0.4,0.4,0.7,0.6l1.7,0.9c0.3,0.2,0.7,0.2,1.1,0l4.2-2.2c0.4-0.2,0.6-0.5,0.6-0.9l0.1-2.1c0-0.4-0.1-0.7-0.2-1.1L15,7.3
	c-0.3-0.8-1.2-1.1-1.9-0.8c0,0-0.1,0-0.1,0.1l-0.4,0.2c-0.1,0-0.1-0.1-0.2-0.1c-0.2-0.1-0.5-0.2-0.8-0.2S11,6.7,10.8,6.8l-0.1,0.1
	c-0.2-0.1-0.4-0.2-0.6-0.2c-0.2,0-0.4,0-0.6,0.1C9.1,6.8,8.8,7,8.6,7.1L8.6,7.1z"/>
</svg>
