<?xml version="1.0" encoding="utf-8"?>
<!-- Generator: Adobe Illustrator 24.1.3, SVG Export Plug-In . SVG Version: 6.00 Build 0)  -->
<svg version="1.1" id="圖層_1" xmlns="http://www.w3.org/2000/svg" xmlns:xlink="http://www.w3.org/1999/xlink" x="0px" y="0px"
	 viewBox="0 0 16 16" style="enable-background:new 0 0 16 16;" xml:space="preserve">
<path d="M8.4,1.1C8.2,1,7.8,1,7.6,1.1l0,0l-6,6c0,0.1-0.1,0.3-0.1,0.4v7C1.5,14.8,1.7,15,2,15h4.5C6.8,15,7,14.8,7,14.5v-4h2v4
	C9,14.8,9.2,15,9.5,15H14c0.3,0,0.5-0.2,0.5-0.5v-7c0-0.1-0.1-0.3-0.1-0.4L13,5.8V2.5C13,2.2,12.8,2,12.5,2h-1C11.2,2,11,2.2,11,2.5
	v1.3L8.4,1.1z M2.5,14V7.7L8,2.2l5.5,5.5V14H10v-4c0-0.3-0.2-0.5-0.5-0.5h-3C6.2,9.5,6,9.7,6,10v4H2.5z"/>
</svg>
