<?xml version="1.0" encoding="utf-8"?>
<!-- Generator: Adobe Illustrator 24.1.3, SVG Export Plug-In . SVG Version: 6.00 Build 0)  -->
<svg version="1.1" id="圖層_1" xmlns="http://www.w3.org/2000/svg" xmlns:xlink="http://www.w3.org/1999/xlink" x="0px" y="0px"
	 viewBox="0 0 16 16" style="enable-background:new 0 0 16 16;" xml:space="preserve">
<style type="text/css">
	.st0{fill-rule:evenodd;clip-rule:evenodd;}
</style>
<path class="st0" d="M5,11.5C5,11.2,5.2,11,5.5,11h9c0.3,0,0.5,0.2,0.5,0.5S14.8,12,14.5,12h-9C5.2,12,5,11.8,5,11.5 M5,7.5
	C5,7.2,5.2,7,5.5,7h9C14.8,7,15,7.2,15,7.5S14.8,8,14.5,8h-9C5.2,8,5,7.8,5,7.5 M5,3.5C5,3.2,5.2,3,5.5,3h9C14.8,3,15,3.2,15,3.5
	S14.8,4,14.5,4h-9C5.2,4,5,3.8,5,3.5 M2,4.5c0.6,0,1-0.4,1-1s-0.4-1-1-1s-1,0.4-1,1S1.4,4.5,2,4.5 M2,8.5c0.6,0,1-0.4,1-1
	s-0.4-1-1-1s-1,0.4-1,1C1,8.1,1.4,8.5,2,8.5 M2,12.5c0.6,0,1-0.4,1-1s-0.4-1-1-1s-1,0.4-1,1S1.4,12.5,2,12.5"/>
</svg>
